<?xml version="1.0" encoding="UTF-8"?>
<svg width="92px" height="34px" viewBox="0 0 92 34" version="1.1" xmlns="http://www.w3.org/2000/svg" xmlns:xlink="http://www.w3.org/1999/xlink">
    <!-- Generator: Sketch 63.1 (92452) - https://sketch.com -->
    <title>jessicadesignco</title>
    <desc>Created with Sketch.</desc>
    <g id="Page-1" stroke="none" stroke-width="1" fill="none" fill-rule="evenodd">
        <g id="Menu" transform="translate(-200.000000, -789.000000)" fill="#FFFFFF" fill-rule="nonzero">
            <path d="M282.484687,811.544379 C285.948443,811.544379 288.486125,813.895464 288.498152,817.177515 C288.498152,820.57002 285.980514,823 282.484687,823 C278.98886,823 276.471223,820.57002 276.471223,817.177515 C276.471223,813.911243 279.004896,811.544379 282.484687,811.544379 Z M290.490613,819.891519 C291.332683,819.912979 292.002635,820.593241 291.997988,821.422091 C292.026819,821.973834 291.744075,822.496251 291.262711,822.78064 C290.781347,823.065028 290.179833,823.065028 289.698469,822.78064 C289.217105,822.496251 288.934362,821.973834 288.963193,821.422091 C288.960897,820.58658 289.641603,819.904469 290.490613,819.891519 Z M245.341522,811.564103 C246.35029,811.578569 247.352887,811.721776 248.3242,811.990138 L248.3242,811.990138 L249.125995,814.719921 C248.147805,813.86785 247.041328,813.17357 245.838635,813.17357 C243.850183,813.17357 242.439023,815.019724 242.439023,817.433925 C242.439023,819.848126 243.818111,821.552268 245.790527,821.552268 C246.14808,821.549857 246.50187,821.480232 246.832861,821.34714 L246.832861,821.34714 L246.832861,817.856016 C245.978875,817.791356 245.121102,817.791356 244.267116,817.856016 L244.267116,817.856016 L245.245306,815.994083 C246.856976,816.082064 248.472325,816.083381 250.084141,815.998028 C249.731351,816.597633 248.849376,818.901381 249.651171,822.577909 C248.269749,822.824589 246.869694,822.956546 245.4658,822.972387 C241.50894,822.972387 239.051438,820.605523 239.051438,817.35503 C239.051438,813.978304 241.6693,811.564103 245.341522,811.564103 Z M228.399588,811.607495 C229.811409,811.614317 231.209374,811.881939 232.520816,812.39645 L232.520816,812.39645 L232.055774,815.126233 C231.237362,813.944734 229.899551,813.213409 228.447696,813.153846 C227.116716,813.153846 226.507351,813.848126 226.507351,814.416174 C226.507351,815.126233 226.988428,815.410256 227.950583,815.599606 L227.950583,815.599606 L229.666425,815.86785 C231.899424,816.278107 233.182297,817.445759 233.182297,819.311637 C233.182297,821.441815 231.482491,822.925049 228.419633,822.925049 C226.735013,822.917059 225.069631,822.572137 223.524673,821.911243 L223.524673,821.911243 L224.326468,819.00789 C225.256551,820.317554 226.924285,821.2643 228.367516,821.2643 C229.586245,821.2643 230.259753,820.74359 230.259753,819.923077 C230.259753,819.039448 229.40985,818.676529 228.43166,818.502959 L228.43166,818.502959 L226.74789,818.234714 C224.887725,817.919132 223.717104,816.925049 223.717104,815.157791 C223.717104,812.964497 225.7697,811.607495 228.399588,811.607495 Z M275.509068,811.749507 L276.086361,814.668639 C274.819524,813.595661 273.729083,813.295858 272.815036,813.295858 C271.019015,813.295858 269.848394,815.078895 269.848394,816.846154 C269.848394,818.865878 270.95888,821.2643 273.364266,821.2643 C274.342456,821.2643 275.144252,820.901381 276.170549,819.891519 L276.170549,819.891519 L275.589248,822.794872 L272.782964,822.794872 C268.934347,822.794872 266.492881,820.712032 266.492881,817.003945 C266.492881,814.242604 268.822096,811.749507 272.237744,811.749507 L272.237744,811.749507 L275.509068,811.749507 Z M254.385772,811.749507 C254.530095,813.011834 257.063768,816.56213 259.148436,818.534517 C259.292759,815.899408 259.004113,813.011834 258.442856,811.749507 L258.442856,811.749507 L261.593912,811.749507 C260.760045,813.406312 260.58365,818.534517 261.160942,821.295858 C261.2709,821.804528 261.41555,822.305332 261.593912,822.794872 L261.593912,822.794872 L257.921689,822.794872 C257.777366,821.422091 255.019191,818.108481 253.319385,816.04142 C253.038756,818.802761 253.319385,821.422091 254.032982,822.794872 L254.032982,822.794872 L250.729586,822.794872 C251.739848,820.980276 251.836063,816.04142 251.290843,813.248521 C251.209614,812.716413 251.018612,812.206283 250.729586,811.749507 L250.729586,811.749507 Z M238.253652,811.749507 C237.127129,813.895464 237.127129,820.648915 238.253652,822.794872 L238.253652,822.794872 L233.871841,822.794872 C235.01039,820.648915 235.01039,813.895464 233.871841,811.749507 L233.871841,811.749507 Z M207.504804,811.749507 C211.225134,811.749507 213.229622,814.321499 213.229622,817.272189 C213.229622,820.22288 211.225134,822.794872 207.504804,822.794872 L207.504804,822.794872 L201.892237,822.794872 C203.01475,820.696252 203.01475,813.816568 201.892237,811.749507 L201.892237,811.749507 Z M222.418195,811.749507 L223.02756,814.700197 C221.985226,813.848126 220.686318,813.485207 218.842189,813.485207 L218.842189,813.485207 L217.8199,813.485207 C217.636649,814.485493 217.534765,815.498567 217.515217,816.514793 C218.381156,816.593688 220.016819,816.609467 221.18744,815.962525 L221.18744,815.962525 L221.18744,818.64497 C220.016819,817.998028 218.36512,817.966469 217.515217,818.076923 C217.534712,819.087926 217.6366,820.095761 217.8199,821.09073 L217.8199,821.09073 L218.794081,821.09073 C220.622174,821.09073 222.001262,820.696252 223.02756,819.907298 L223.02756,819.907298 L222.450267,822.794872 L213.999345,822.794872 C215.121859,820.696252 215.121859,813.816568 213.999345,811.749507 L213.999345,811.749507 L222.418195,811.749507 Z M282.484687,813.122288 C280.94524,813.122288 279.822727,814.779093 279.822727,817.193294 C279.822727,819.717949 280.94524,821.453649 282.484687,821.453649 L282.484687,821.453649 L282.500723,821.453649 C284.024134,821.453649 285.146647,819.717949 285.130611,817.193294 C285.130611,814.779093 284.024134,813.122288 282.484687,813.122288 Z M206.719044,813.138067 L205.853105,813.138067 C205.358187,815.877937 205.358187,818.682221 205.853105,821.422091 L205.853105,821.422091 L206.510577,821.422091 C207.745342,821.422091 209.834019,820.112426 209.834019,817.287968 C209.834019,814.573964 208.274527,813.138067 206.719044,813.138067 L206.719044,813.138067 Z M282.456624,815.954635 C282.468651,815.911243 282.524777,815.911243 282.524777,815.954635 C282.62901,816.435897 283.234366,817.197239 283.579138,817.295858 C283.611209,817.307692 283.611209,817.34714 283.579138,817.34714 C283.234366,817.445759 282.62901,818.211045 282.524777,818.688363 C282.51275,818.731755 282.456624,818.731755 282.456624,818.688363 C282.352391,818.211045 281.747035,817.445759 281.402263,817.34714 C281.370192,817.335306 281.370192,817.295858 281.402263,817.295858 C281.747035,817.197239 282.352391,816.435897 282.456624,815.954635 Z M206.446434,796.960552 C205.885177,797.986193 205.772926,800.037475 205.772926,802.262327 L205.772926,802.262327 L205.772926,804.779093 C205.772926,809.512821 203.239253,810.696252 201.68377,810.755424 L201.68377,810.755424 L200,809.335306 C202.325206,809.287968 202.918535,807.473373 202.918535,805.201183 L202.918535,805.201183 L202.918535,802.262327 C202.918535,800.037475 202.758176,797.986193 202.196919,796.960552 L202.196919,796.960552 Z M222.097477,796.81854 C223.509298,796.825363 224.907263,797.092985 226.218705,797.607495 L226.218705,797.607495 L225.753664,800.337278 C224.935251,799.15578 223.59744,798.424454 222.145585,798.364892 C220.814605,798.364892 220.20524,799.059172 220.20524,799.627219 C220.20524,800.337278 220.686318,800.621302 221.648472,800.810651 L221.648472,800.810651 L223.348278,801.08284 C225.577269,801.493097 226.860141,802.66075 226.860141,804.542406 C226.860141,806.672584 225.160335,808.155819 222.097477,808.155819 C220.425299,808.144283 218.772684,807.800806 217.238598,807.145957 L217.238598,807.145957 L218.028366,804.238659 C218.958449,805.548323 220.626183,806.495069 222.069414,806.495069 C223.288143,806.495069 223.961651,805.962525 223.957642,805.138067 C223.957642,804.254438 223.107739,803.891519 222.129549,803.717949 L222.129549,803.717949 L220.445779,803.449704 C218.585614,803.130178 217.414993,802.136095 217.414993,800.368836 C217.414993,798.175542 219.467589,796.81854 222.097477,796.81854 Z M232.103882,796.822485 C233.515703,796.829308 234.913668,797.09693 236.22511,797.61144 L236.22511,797.61144 L235.760068,800.341223 C234.941656,799.159725 233.603845,798.428399 232.15199,798.368836 C230.82101,798.368836 230.211645,799.063116 230.211645,799.631164 C230.211645,800.341223 230.692722,800.625247 231.654877,800.814596 L231.654877,800.814596 L233.370719,801.08284 C235.599709,801.493097 236.882582,802.66075 236.882582,804.542406 C236.882582,806.672584 235.182776,808.155819 232.119918,808.155819 C230.447739,808.144283 228.795124,807.800806 227.261039,807.145957 L227.261039,807.145957 L228.030762,804.238659 C228.960845,805.548323 230.628579,806.495069 232.07181,806.495069 C233.294548,806.495069 233.968056,805.962525 233.964047,805.142012 C233.964047,804.258383 233.114144,803.895464 232.135954,803.721893 L232.135954,803.721893 L230.452184,803.453649 C228.592019,803.134122 227.421398,802.140039 227.421398,800.372781 C227.421398,798.179487 229.473994,796.822485 232.103882,796.822485 Z M216.104058,796.960552 L216.713422,799.911243 C215.671088,799.059172 214.37218,798.696252 212.528051,798.696252 L212.528051,798.696252 L211.501753,798.696252 C211.318502,799.696538 211.216618,800.709612 211.197071,801.725838 C212.06301,801.804734 213.698672,801.820513 214.869293,801.17357 L214.869293,801.17357 L214.869293,803.859961 C213.698672,803.209073 212.046974,803.177515 211.197071,803.291913 C211.216565,804.302916 211.318453,805.310751 211.501753,806.30572 L211.501753,806.30572 L212.479943,806.30572 C214.308036,806.30572 215.687124,805.911243 216.713422,805.122288 L216.713422,805.122288 L216.13613,808.009862 L207.685208,808.005917 C208.807721,805.911243 208.807721,799.027613 207.685208,796.960552 L207.685208,796.960552 L216.104058,796.960552 Z M241.94191,796.964497 C240.819397,799.106509 240.819397,805.863905 241.94191,808.009862 L241.94191,808.009862 L237.560099,808.009862 C238.698648,805.86785 238.698648,799.110454 237.560099,796.964497 L237.560099,796.964497 Z M251.69174,796.964497 L252.269033,799.883629 C251.002196,798.810651 249.911755,798.510848 248.997708,798.510848 C247.201687,798.510848 246.031066,800.289941 246.031066,802.061144 C246.031066,804.080868 247.137543,806.47929 249.542929,806.47929 C250.521119,806.47929 251.322914,806.116371 252.349212,805.106509 L252.349212,805.106509 L251.77192,808.009862 L248.965636,808.009862 C245.117019,808.009862 242.679562,805.927022 242.679562,802.218935 C242.679562,799.457594 245.004768,796.964497 248.420416,796.964497 L248.420416,796.964497 L251.69174,796.964497 Z M260.591668,796.960552 C260.46338,798.57002 261.337337,801.315582 262.648272,804.901381 C263.341825,806.857988 263.806867,807.631164 264.143621,807.994083 L264.143621,807.994083 L259.613477,807.994083 C259.836518,807.487258 259.892597,806.924413 259.773836,806.384615 L259.773836,806.384615 L259.677621,805.911243 L255.829004,805.911243 L255.748824,806.30572 C255.610096,806.885167 255.701895,807.494882 256.005399,808.009862 L256.005399,808.009862 L252.269033,808.009862 C252.958577,807.17357 253.343438,806.226824 253.840552,804.932939 C255.299819,800.842209 255.989363,798.175542 255.780896,796.960552 L255.780896,796.960552 Z M273.941559,789 C271.377832,792.157834 271.681068,796.717528 274.641156,799.51968 C277.601243,802.321832 282.243409,802.443677 285.351105,799.800789 C284.641897,804.48247 280.579858,807.962691 275.769652,808.009862 C270.366746,808.053642 265.94844,803.78376 265.895543,798.467456 C265.845041,793.793567 269.257615,789.778114 273.941559,789 Z M257.769348,799.17357 C257.104198,800.869042 256.568188,802.610866 256.165758,804.384615 L256.165758,804.384615 L259.356903,804.384615 C258.99656,802.602065 258.464988,800.857217 257.769348,799.17357 Z" id="jessicadesignco" transform="translate(246.000000, 806.000000) rotate(-360.000000) translate(-246.000000, -806.000000) "></path>
        </g>
    </g>
</svg>