<?xml version="1.0" encoding="UTF-8"?>
<svg width="25px" height="25px" viewBox="0 0 25 25" version="1.1" xmlns="http://www.w3.org/2000/svg" xmlns:xlink="http://www.w3.org/1999/xlink">
    <!-- Generator: Sketch 63.1 (92452) - https://sketch.com -->
    <title>dribbble</title>
    <desc>Created with Sketch.</desc>
    <g id="Page-1" stroke="none" stroke-width="1" fill="none" fill-rule="evenodd">
        <g id="About" transform="translate(-375.000000, -898.000000)" fill="#FFFFFF">
            <g id="Group-2" transform="translate(244.000000, 898.000000)">
                <path d="M143.5,0 C136.599268,0 131,5.59926758 131,12.5 C131,19.4007324 136.599268,25 143.5,25 C150.387256,25 156,19.4007324 156,12.5 C156,5.59926758 150.387256,0 143.5,0 Z M151.756494,5.76201172 C153.247754,7.57875977 154.142773,9.89702148 154.169727,12.4049805 C153.817236,12.3372559 150.292236,11.61875 146.740234,12.0662598 C146.658984,11.8899902 146.591016,11.7 146.509766,11.5102539 C146.292773,10.9952637 146.04873,10.4665039 145.804736,9.96474609 C149.736523,8.36499023 151.525977,6.06025391 151.756494,5.76201172 L151.756494,5.76201172 Z M143.5,1.84375 C146.211523,1.84375 148.69248,2.86074219 150.577002,4.52827148 C150.387256,4.79926758 148.77373,6.95498047 144.977734,8.37851562 C143.22876,5.16547852 141.290234,2.53525391 140.991992,2.12851562 C141.791748,1.93876953 142.632227,1.84375 143.5,1.84375 Z M138.958252,2.84702148 C139.243018,3.22675781 141.141016,5.87050781 142.916992,9.01577148 C137.927979,10.3442383 133.521729,10.3172775 133.047266,10.3172775 C133.738477,7.00922852 135.975488,4.25698242 138.958252,2.84702148 Z M132.816748,12.5134766 L132.816748,12.1882324 C133.277734,12.2017578 138.456738,12.2694824 143.784766,10.6697266 C144.096484,11.2662598 144.38125,11.8762695 144.652246,12.4865234 C144.516748,12.5272461 144.367773,12.5677734 144.231982,12.6084961 C138.727734,14.3845215 135.799268,19.2379883 135.555273,19.6447266 C133.860742,17.7602539 132.816748,15.2522461 132.816748,12.5134766 L132.816748,12.5134766 Z M143.5,23.183252 C141.03252,23.183252 138.75498,22.3427734 136.951758,20.9327637 C137.141504,20.539502 139.310742,16.3640137 145.330273,14.2625 C145.357227,14.2490234 145.370996,14.2490234 145.397998,14.2352539 C146.902979,18.1262695 147.512988,21.39375 147.675732,22.329248 C146.387744,22.8850098 144.977734,23.183252 143.5,23.183252 Z M149.451758,21.3529785 C149.343262,20.7022461 148.774023,17.5839844 147.37749,13.7472656 C150.72627,13.2185059 153.654492,14.0862305 154.020508,14.208252 C153.559766,17.1772461 151.851514,19.7397461 149.451758,21.3529785 Z" id="dribbble"></path>
            </g>
        </g>
    </g>
</svg>