<?xml version="1.0" encoding="UTF-8"?>
<svg width="13px" height="24px" viewBox="0 0 13 24" version="1.1" xmlns="http://www.w3.org/2000/svg" xmlns:xlink="http://www.w3.org/1999/xlink">
    <!-- Generator: Sketch 63.1 (92452) - https://sketch.com -->
    <title>facebook</title>
    <desc>Created with Sketch.</desc>
    <g id="Page-1" stroke="none" stroke-width="1" fill="none" fill-rule="evenodd">
        <g id="About" transform="translate(-340.000000, -899.000000)" fill="#FFFFFF" fill-rule="nonzero">
            <g id="Group-2" transform="translate(244.000000, 898.000000)">
                <path d="M108.148176,14.3980469 L108.821878,10.087375 L104.607277,10.087375 L104.607277,7.29001563 C104.607277,6.1106875 105.196002,4.96117187 107.083742,4.96117187 L109,4.96117187 L109,1.29128125 C109,1.29128125 107.260909,1 105.598341,1 C102.127133,1 99.8584525,3.06446875 99.8584525,6.80195313 L99.8584525,10.087375 L96,10.087375 L96,14.3980469 L99.8584525,14.3980469 L99.8584525,24.8188281 C100.63213,24.9379844 101.425105,25 102.232888,25 C103.040672,25 103.833647,24.9379844 104.607277,24.8188281 L104.607277,14.3980469 L108.148176,14.3980469 Z" id="facebook"></path>
            </g>
        </g>
    </g>
</svg>