<?xml version="1.0" encoding="UTF-8"?>
<svg width="866px" height="847px" viewBox="0 0 866 847" version="1.1" xmlns="http://www.w3.org/2000/svg" xmlns:xlink="http://www.w3.org/1999/xlink">
    <!-- Generator: Sketch 63.1 (92452) - https://sketch.com -->
    <title>Path</title>
    <desc>Created with Sketch.</desc>
    <g id="Page-1" stroke="none" stroke-width="1" fill="none" fill-rule="evenodd">
        <path d="M358.217383,1.02458929 L359.048419,0 L357.747043,0.216394767 C149.502312,34.8436668 -2.22075814,213.540373 0.0245962715,421.541831 C2.37636665,658.12773 198.810058,848.142995 439.014403,846.194774 C652.869155,844.095652 833.463196,689.221603 864.994371,480.877696 L865.194546,479.555028 L864.175902,480.42214 C726.364946,597.732529 520.505409,592.324106 389.240419,467.94469 C257.979418,343.569053 244.533031,141.186726 358.217383,1.02458929 Z M351.695259,2.28225932 L356.615001,1.42762249 L357.440734,0.394655696 C243.427024,140.962861 256.912656,343.93587 388.552607,468.670579 L392.523983,472.37671 C522.979283,592.274229 723.898492,597.55286 860.657775,484.675941 L863.796001,482.044622 L864.00563,480.728058 C832.548299,688.58404 652.371242,843.100491 439.00544,845.194815 C199.350136,847.138582 3.37080066,657.562826 1.02454244,421.531464 C-1.1930648,216.100387 147.138149,39.318118 351.695259,2.28225932 Z" id="Path" fill="#1C1C1C" fill-rule="nonzero"></path>
    </g>
</svg>