<?xml version="1.0" encoding="UTF-8"?>
<svg width="24px" height="24px" viewBox="0 0 24 24" version="1.1" xmlns="http://www.w3.org/2000/svg" xmlns:xlink="http://www.w3.org/1999/xlink">
    <!-- Generator: Sketch 63.1 (92452) - https://sketch.com -->
    <title>instagram</title>
    <desc>Created with Sketch.</desc>
    <g id="Page-1" stroke="none" stroke-width="1" fill="none" fill-rule="evenodd">
        <g id="About" transform="translate(-244.000000, -899.000000)" fill="#FFFFFF" fill-rule="nonzero">
            <g id="Group-2" transform="translate(244.000000, 898.000000)">
                <path d="M12.6144248,0.998898709 C15.3170134,1.00074722 15.7526667,1.01642825 16.947339,1.07094435 C18.224673,1.12921381 19.0970741,1.33205531 19.86039,1.62874674 C20.6495356,1.9354232 21.318814,2.345794 21.9860298,3.01296298 C22.6531518,3.68008507 23.0635225,4.34936356 23.3701989,5.13850933 C23.6668434,5.90182527 23.8697318,6.77422652 23.9280012,8.05156071 C23.9824736,9.24623321 23.9981517,9.68188651 24,12.3845517 L24,13.6144232 C23.9981517,16.3170122 23.9824736,16.7526655 23.9280012,17.947338 C23.8697318,19.2246722 23.6668434,20.0970734 23.3701989,20.8603894 C23.0635225,21.6495351 22.6531518,22.3188136 21.9860298,22.9860295 C21.318814,23.6531516 20.6495356,24.0635224 19.86039,24.3701988 C19.0970741,24.6668434 18.224673,24.8697318 16.947339,24.9280012 C15.7526667,24.9824736 15.3170134,24.9981517 12.6144248,25 L11.3845536,25 C8.68188872,24.9981517 8.24623549,24.9824736 7.05156317,24.9280012 C5.77422916,24.8697318 4.90182803,24.6668434 4.13846532,24.3701988 C3.34931967,24.0635224 2.68004128,23.6531516 2.01291928,22.9860295 C1.3457504,22.3188136 0.935379661,21.6495351 0.628703242,20.8603894 C0.332011853,20.0970734 0.129170388,19.2246722 0.0709009304,17.947338 C0.016384845,16.7526655 0.000744649669,16.3170122 -0.00109841599,13.6144232 L-0.00109841599,12.3845517 C0.000744649669,9.68188651 0.016384845,9.24623321 0.0709009304,8.05156071 C0.129170388,6.77422652 0.332011853,5.90182527 0.628703242,5.13850933 C0.935379661,4.34936356 1.3457504,3.68008507 2.01291928,3.01296298 C2.68004128,2.345794 3.34931967,1.9354232 4.13846532,1.62874674 C4.90182803,1.33205531 5.77422916,1.12921381 7.05156317,1.07094435 C8.24623549,1.01642825 8.68188872,1.00074722 11.3845536,0.998898709 Z M13.1393628,3.16178002 L10.8596166,3.16178002 C8.67817806,3.16511113 8.2468449,3.18093967 7.1501009,3.23099297 C5.98007082,3.28438712 5.3446384,3.47986875 4.92175122,3.64417646 C4.361605,3.86187831 3.96182871,4.12195795 3.54184796,4.54189188 C3.12191409,4.96182581 2.86183449,5.36164904 2.64417955,5.92174846 C2.47982499,6.3446357 2.28434338,6.98006821 2.23094924,8.15009846 C2.18089595,9.24684262 2.16506741,9.67817585 2.1617363,11.8596147 L2.1617363,14.1393612 C2.16506741,16.3207689 2.18089595,16.7520967 2.23094924,17.8488002 C2.28434338,19.0188305 2.47982499,19.654263 2.64417955,20.0771502 C2.86183449,20.6372965 3.12191409,21.0370729 3.54184796,21.4570068 C3.96182871,21.8769876 4.361605,22.1370204 4.92175122,22.3547222 C5.3446384,22.5190768 5.98007082,22.7145585 7.1501009,22.7679057 C8.24672302,22.817959 8.6779343,22.8338228 10.8595256,22.8371633 L13.1394419,22.8371633 C15.3209895,22.8338228 15.7522604,22.817959 16.8488013,22.7679057 C18.0188313,22.7145585 18.6542638,22.5190768 19.077151,22.3547222 C19.6372972,22.1370204 20.0370735,21.8769876 20.4570073,21.4570068 C20.8769881,21.0370729 21.1370208,20.6372965 21.3547226,20.0771502 C21.5190772,19.654263 21.7145588,19.0188305 21.7679529,17.8488002 C21.8179656,16.7520967 21.8338239,16.3207689 21.8371637,14.1393612 L21.8371637,11.8596147 C21.8338239,9.67817585 21.8179656,9.24684262 21.7679529,8.15009846 C21.7145588,6.98006821 21.5190772,6.3446357 21.3547226,5.92174846 C21.1370208,5.36164904 20.8769881,4.96182581 20.4570073,4.54189188 C20.0370735,4.12195795 19.6372972,3.86187831 19.077151,3.64417646 C18.6542638,3.47986875 18.0188313,3.28438712 16.8488013,3.23099297 C15.7520979,3.18093967 15.3207701,3.16511113 13.1393628,3.16178002 Z M11.999498,6.83690253 C15.4029406,6.83690253 18.161997,9.59595939 18.161997,12.9994962 C18.161997,16.4029393 15.4029406,19.1619962 11.999498,19.1619962 C8.59596161,19.1619962 5.83690515,16.4029393 5.83690515,12.9994962 C5.83690515,9.59595939 8.59596161,6.83690253 11.999498,6.83690253 Z M11.999498,8.9992013 C9.79018078,8.9992013 7.99920362,10.7901787 7.99920362,12.9994962 C7.99920362,15.20872 9.79018078,16.9996974 11.999498,16.9996974 C14.2087214,16.9996974 15.9996986,15.20872 15.9996986,12.9994962 C15.9996986,10.7901787 14.2087214,8.9992013 11.999498,8.9992013 Z M18.4054818,5.15336968 C19.2008153,5.15336968 19.8455765,5.79808405 19.8455765,6.59341773 C19.8455765,7.38879828 19.2008153,8.03351265 18.4054818,8.03351265 C17.6101482,8.03351265 16.9653871,7.38879828 16.9653871,6.59341773 C16.9653871,5.79808405 17.6101482,5.15336968 18.4054818,5.15336968 Z" id="instagram"></path>
            </g>
        </g>
    </g>
</svg>