<?xml version="1.0" encoding="UTF-8"?>
<svg width="49px" height="49px" viewBox="0 0 49 49" version="1.1" xmlns="http://www.w3.org/2000/svg" xmlns:xlink="http://www.w3.org/1999/xlink">
    <!-- Generator: Sketch 63.1 (92452) - https://sketch.com -->
    <title>pinterest</title>
    <desc>Created with Sketch.</desc>
    <g id="Page-1" stroke="none" stroke-width="1" fill="none" fill-rule="evenodd">
        <g id="Portfolio" transform="translate(-260.000000, -290.000000)">
            <g id="pinterest" transform="translate(260.000000, 290.000000)">
                <circle id="Oval" fill="#F1F1F1" cx="24.5" cy="24.5" r="22"></circle>
                <path d="M24.4375,0 C10.9415,0 0,10.941 0,24.4375 C0,37.934 10.9415,48.875 24.4375,48.875 C37.9335,48.875 48.875,37.934 48.875,24.4375 C48.875,10.941 37.9335,0 24.4375,0 Z M26.9929025,30.9597776 C25.190207,30.9597776 23.4947721,29.9874209 22.9142093,28.8833743 C22.9142093,28.8833743 21.9444779,32.7206822 21.7407227,33.4610897 C21.0178103,36.0789731 18.8913394,38.6976523 18.725863,38.9120959 C18.6106277,39.0612914 18.355834,39.0147424 18.3295173,38.8166108 C18.2844598,38.4832086 17.7413784,35.1806174 18.380157,32.4871415 C18.6995463,31.1344358 20.5265648,23.410486 20.5265648,23.410486 C20.5265648,23.410486 19.994648,22.3470206 19.994648,20.7746991 C19.994648,18.3060111 21.4285107,16.4631485 23.2140604,16.4631485 C24.7320568,16.4631485 25.4649376,17.6006148 25.4649376,18.9640627 C25.4649376,20.4870502 24.4936113,22.7643701 23.9923974,24.874591 C23.5733235,26.6414634 24.8795899,28.0828908 26.6260633,28.0828908 C29.7892536,28.0828908 31.9181169,24.0295478 31.9181169,19.2262489 C31.9181169,15.5763305 29.4555097,12.8430692 24.9728947,12.8430692 C19.9101155,12.8430692 16.7529064,16.6111504 16.7529064,20.8208502 C16.7529064,22.2714282 17.1827462,23.2959039 17.8550188,24.0872367 C18.1632434,24.4512737 18.2071046,24.5976842 18.0950592,25.0154316 C18.0141153,25.3221775 17.831892,26.0598 17.7545368,26.3514274 C17.6432888,26.773949 17.3011714,26.9243381 16.917984,26.7687769 C14.5869604,25.8190979 13.5,23.2704412 13.5,20.40549 C13.5,15.6738049 17.4989456,10 25.4310449,10 C31.8048752,10 36,14.6015866 36,19.5421454 C36.0003987,26.0781013 32.3587226,30.9597776 26.9929025,30.9597776 Z" id="Shape" fill="#000000" fill-rule="nonzero"></path>
            </g>
        </g>
    </g>
</svg>