<?xml version="1.0" encoding="UTF-8"?>
<svg width="25px" height="25px" viewBox="0 0 25 25" version="1.1" xmlns="http://www.w3.org/2000/svg" xmlns:xlink="http://www.w3.org/1999/xlink">
    <!-- Generator: Sketch 63.1 (92452) - https://sketch.com -->
    <title>Shape</title>
    <desc>Created with Sketch.</desc>
    <g id="Page-1" stroke="none" stroke-width="1" fill="none" fill-rule="evenodd">
        <g id="Portfolio" transform="translate(-200.000000, -2945.000000)" fill="#FFFFFF" fill-rule="nonzero">
            <path d="M212.5,2945 C219.403325,2945 225,2950.59642 225,2957.5 C225,2964.40358 219.403325,2970 212.5,2970 C211.25075,2970 210.04429,2969.81673 208.906043,2969.47561 C209.412531,2968.71501 210.058284,2967.60194 210.360069,2966.48906 C210.504962,2965.95291 211.194549,2963.17417 211.194549,2963.17417 C211.607393,2963.97365 212.813036,2964.67777 214.094953,2964.67777 C217.910647,2964.67777 220.500284,2961.14276 220.5,2956.40983 C220.5,2952.83218 217.5168,2949.5 212.984299,2949.5 C207.343695,2949.5 204.5,2953.60862 204.5,2957.03501 C204.5,2959.10963 205.27295,2960.95521 206.930566,2961.64291 C207.203055,2961.75556 207.446339,2961.64665 207.525448,2961.34069 C207.580457,2961.12951 207.710038,2960.59537 207.767598,2960.37324 C207.847274,2960.07074 207.816084,2959.96472 207.596902,2959.7011 C207.118842,2959.12807 206.813178,2958.38621 206.813178,2957.33579 C206.813178,2954.28738 209.058304,2951.55877 212.658503,2951.55877 C215.84614,2951.55877 217.597328,2953.53803 217.597328,2956.18108 C217.597328,2959.65933 216.083469,2962.59451 213.834089,2962.59451 C212.592153,2962.59451 211.663252,2961.55071 211.96126,2960.27126 C212.317679,2958.74316 213.0084,2957.09407 213.0084,2955.99122 C213.0084,2955.00389 212.48724,2954.18021 211.407776,2954.18021 C210.138052,2954.18021 209.118416,2955.5147 209.118416,2957.30237 C209.118416,2958.44095 209.496668,2959.21104 209.496668,2959.21104 C209.496668,2959.21104 208.197455,2964.80425 207.970334,2965.78379 C207.710187,2966.90082 207.725695,2968.16252 207.792464,2969.08216 C203.222038,2967.22368 200,2962.73811 200,2957.5 C200,2950.59642 205.596675,2945 212.5,2945 Z" id="Shape"></path>
        </g>
    </g>
</svg>