<?xml version="1.0" encoding="UTF-8"?>
<svg width="29px" height="20px" viewBox="0 0 29 20" version="1.1" xmlns="http://www.w3.org/2000/svg" xmlns:xlink="http://www.w3.org/1999/xlink">
    <!-- Generator: Sketch 63.1 (92452) - https://sketch.com -->
    <title>youtube</title>
    <desc>Created with Sketch.</desc>
    <g id="Page-1" stroke="none" stroke-width="1" fill="none" fill-rule="evenodd">
        <g id="About" transform="translate(-290.000000, -901.000000)" fill="#FFFFFF" fill-rule="nonzero">
            <g id="Group-2" transform="translate(244.000000, 898.000000)">
                <path d="M60.922163,3.0004344 C62.7363396,3.00916859 69.8614743,3.07654662 71.8301089,3.59632002 C73.0779361,3.92485349 74.0604513,4.89293062 74.3939604,6.12235007 C75.0000884,8.35059609 75.0000884,12.9997325 75.0000884,12.9997325 L75.0000773,13.0092625 C74.9996686,13.2427472 74.9841376,17.7075011 74.3939604,19.8768918 C74.0604513,21.1063112 73.0779361,22.0746116 71.8301089,22.403145 C69.693931,22.9669436 61.4862016,22.9982658 60.5808248,23.0000059 L60.4183303,23.0000059 C59.5129534,22.9982658 51.3052211,22.9669436 49.1689896,22.403145 C47.9214457,22.0746116 46.9386472,21.1063112 46.6051381,19.8768918 C46.0790098,17.9420299 46.0097824,14.1812727 46.0006735,13.2250981 L46.0006735,12.7743665 C46.0097824,11.8181885 46.0790098,8.05740583 46.6051381,6.12235007 C46.9386472,4.89293062 47.9214457,3.92485349 49.1689896,3.59632002 C51.1376735,3.07654662 58.2628147,3.00916859 60.076992,3.0004344 Z M57.5993848,8.71372965 L57.5993848,17.2857354 L65.133814,12.9997325 L57.5993848,8.71372965 Z" id="youtube"></path>
            </g>
        </g>
    </g>
</svg>